# xmcd
#
# Track frame offsets: 
#        150
#        16307
#        49088
#        71736
#        100347
#        144305
#        187860
#
# Disc length: 3096 seconds
#
# Revision: 0
# Processed by: cddbd v1.5.2PL0 Copyright (c) Steve Scherf et al.
# Submitted via: ExactAudioCopy v0.95b4
#
DISCID=580c1607
DTITLE=Eric Clapton - 1997-10-22 - In The West Of Japan - Disc F
DYEAR=1997
DGENRE=Blues
TTITLE0=I'm Tore Down
TTITLE1=Have You Ever Loved A Woman
TTITLE2=Cocaine
TTITLE3=Tearing Us Apart
TTITLE4=Old Love
TTITLE5=Sunsine Of Your Love
TTITLE6=Everyday I Have The Blues
EXTD=
EXTT0=
EXTT1=
EXTT2=
EXTT3=
EXTT4=
EXTT5=
EXTT6=
PLAYORDER=
